<svg xmlns="http://www.w3.org/2000/svg" xmlns:xlink="http://www.w3.org/1999/xlink" x="0px" y="0px" fill="#ffffff" stroke-width="4" enable-background="new 0 0 100 100" version="1.1" viewBox="0 0 100 125" xml:space="preserve">
    <g>
        <path d="M38.293,35.14c-4.085,0-7.413,3.325-7.413,7.41c0,0.695,0.565,1.26,1.261,1.26c0.694,0,1.26-0.565,1.26-1.26   c0-2.695,2.194-4.89,4.893-4.89c2.701,0,4.896,2.195,4.896,4.89v45.019c0,0.694,0.564,1.26,1.26,1.26s1.26-0.565,1.26-1.26V42.549   C45.709,38.464,42.385,35.14,38.293,35.14z"/>
        <path d="M61.707,35.14c-4.088,0-7.414,3.325-7.414,7.41v45.019c0,0.694,0.566,1.26,1.262,1.26c0.693,0,1.26-0.565,1.26-1.26V42.549   c0-2.695,2.193-4.89,4.893-4.89c2.697,0,4.893,2.195,4.893,4.89c0,0.695,0.564,1.26,1.26,1.26s1.26-0.565,1.26-1.26   C69.119,38.464,65.795,35.14,61.707,35.14z"/>
        <path d="M54.602,15.773c0-0.335-0.133-0.654-0.369-0.89l-3.342-3.342c-0.236-0.236-0.555-0.37-0.89-0.37   c-0.336,0-0.658,0.133-0.891,0.37l-3.342,3.342c-0.233,0.236-0.366,0.555-0.366,0.89s0.133,0.654,0.369,0.89l3.034,3.031   c-0.029,0.106-0.065,0.209-0.065,0.325v58.263c0,0.695,0.565,1.26,1.261,1.26c0.694,0,1.259-0.564,1.259-1.26V20.019   c0-0.115-0.037-0.218-0.064-0.324l3.037-3.031C54.469,16.427,54.602,16.109,54.602,15.773z M50,17.328l-1.555-1.555L50,14.212   l1.56,1.562L50,17.328z"/>
    </g>
</svg>
